<?xml version="1.0" encoding="UTF-8"?>
<svg xmlns="http://www.w3.org/2000/svg" id="Ebene_1" data-name="Ebene 1" version="1.1" viewBox="0 0 240.9 240.9">
  <g id="Auto">
    <g>
      <path d="M223.5,91.5l-12.4-12.8-15-37.4c-2.8-7-9.1-11.8-16.5-12.7-39.3-4.6-79.2-4.6-118.5,0-7.4.9-13.7,5.7-16.4,12.7l-15,37.4-12.4,12.8C5.4,104-1,121.1,0,138.5l1.4,25.2c.1,2.4.6,4.7,1.3,6.9v33.5c0,6.4,5.2,11.6,11.6,11.6h33.7c6.4,0,11.6-5.2,11.6-11.6v-13.8h121.8v13.8c0,6.4,5.2,11.6,11.6,11.6h33.7c3.1,0,6-1.2,8.2-3.4s3.4-5.1,3.4-8.2v-33.5c.7-2.2,1.1-4.5,1.3-6.9l1.4-25.2c1-17.3-5.4-34.5-17.4-47h-.1,0ZM189.3,190.4h22.1c7.3,0,13.9-2.8,18.9-7.3v21.1c0,2-1.7,3.7-3.7,3.7h-33.7c-2,0-3.7-1.7-3.7-3.7v-13.8h.1,0ZM10.5,183c5,4.6,11.7,7.3,19,7.3h22.1v13.8c0,2-1.7,3.7-3.7,3.7H14.2c-2,0-3.7-1.7-3.7-3.7v-21.1ZM55.6,182.4h-26.1c-10.7,0-19.6-8.4-20.2-19.1l-1.4-25.2c-.8-15.2,4.7-30.1,15.2-41l11.8-12.3c56.8-3,114.3-3,171,0l11.8,12.3c10.5,10.9,16.1,25.9,15.2,41l-1.4,25.2c-.6,10.7-9.5,19.1-20.2,19.1H55.6ZM39.2,76.6l12.9-32.4c1.7-4.3,5.5-7.2,10-7.8,19.3-2.3,38.9-3.4,58.3-3.4s39.1,1.2,58.3,3.4c4.5.5,8.3,3.5,10,7.8l12.9,32.4c-54-2.7-108.6-2.7-162.6,0h.2Z" fill="#eb6209" stroke-width="0"></path>
      <path d="M43.2,161.7h-9.6c-2.2,0-4,1.8-4,4s1.8,4,4,4h9.6c2.2,0,4-1.8,4-4s-1.8-4-4-4Z" fill="#eb6209" stroke-width="0"></path>
      <path d="M207.3,161.7h-9.7c-2.2,0-4,1.8-4,4s1.8,4,4,4h9.7c2.2,0,4-1.8,4-4s-1.8-4-4-4Z" fill="#eb6209" stroke-width="0"></path>
      <path d="M155.9,143.9h-70.8c-4,0-7.7,2-9.8,5.5-2.1,3.4-2.3,7.6-.5,11.2l2.1,4.2c2,3.9,5.9,6.4,10.3,6.4h66.7c4.4,0,8.4-2.4,10.3-6.4l2.1-4.2c1.8-3.6,1.6-7.8-.5-11.2s-5.8-5.5-9.8-5.5h-.1ZM82,153.5c.7-1.1,1.8-1.7,3.1-1.7h70.8c1.3,0,2.4.6,3.1,1.7.7,1.1.7,2.4.2,3.5l-2.1,4.1c-.6,1.2-1.9,2-3.2,2h-66.7c-1.4,0-2.6-.8-3.2-2l-2.1-4.1c-.6-1.1-.5-2.4.2-3.5h-.1Z" fill="#eb6209" stroke-width="0"></path>
      <path d="M32.5,118.7c-4.1-1.1-8.3-.2-11.6,2.3-3.3,2.6-5.2,6.4-5.2,10.6v6.7c0,7.4,6,13.4,13.4,13.4h25.1c7.4,0,13.4-6,13.4-13.4s-4.1-11.4-10-13c0,0-25.1-6.6-25.1-6.6ZM23.5,131.7c0-1.7.9-3.3,2.2-4.3,1-.7,2.1-1.1,3.3-1.1.7504,0,.9361.0811,1.4.2l25.1,6.7c2.4.6,4.1,2.8,4.1,5.3s-2.5,5.5-5.5,5.5h-25.1c-3,0-5.5-2.5-5.5-5.5,0,0,0-6.8,0-6.8Z" fill="#eb6209" stroke-width="0"></path>
      <path d="M225.3,138.4v-6.7c0-4.2-1.9-8.1-5.2-10.6-3.3-2.6-7.6-3.4-11.6-2.3l-25.1,6.7c-5.9,1.6-10,6.9-10,13s6,13.4,13.4,13.4h25.1c7.4,0,13.4-6,13.4-13.4v-.1h0ZM217.1944,138.4c0,3-2.3944,5.5-5.3944,5.5h-25.1c-3,0-5.5-2.5-5.5-5.5s1.7-4.6,4.1-5.3l25.1-6.7c.5-.1.9-.2,1.4-.2,1.2,0,2.3.4,3.3,1.1,1.4,1,2.1,2.6,2.1,4.3l-.0056,6.8h0Z" fill="#eb6209" stroke-width="0"></path>
    </g>
  </g>
</svg>
