<svg xmlns="http://www.w3.org/2000/svg" xmlns:xlink="http://www.w3.org/1999/xlink" xmlns:svgjs="http://svgjs.com/svgjs" width="512" height="512" x="0" y="0" viewBox="0 0 64 64" style="enable-background:new 0 0 512 512" xml:space="preserve" class=""><g><g><path d="m63 24h-4v-1c0-1.654-1.346-3-3-3h-1v-6c0-2.757-2.243-5-5-5h-19v-2.184c1.161-.414 2-1.514 2-2.816 0-1.654-1.346-3-3-3h-8c-1.654 0-3 1.346-3 3 0 1.302.839 2.402 2 2.816v2.184h-3c-2.757 0-5 2.243-5 5v4h-1c-1.654 0-3 1.346-3 3v3h-4v8h4v3c0 1.418.992 2.603 2.316 2.914-.327.331-.583.738-.736 1.202-.099.302-.316.537-.6.647-.129.051-.259.104-.387.16-.273.117-.592.104-.873-.038-1.188-.602-2.62-.371-3.562.569l-.702.706c-.942.941-1.171 2.372-.57 3.561.143.282.156.601.038.874-.056.129-.11.26-.161.391-.108.279-.345.496-.647.596-1.266.414-2.116 1.588-2.116 2.92v.996c0 1.332.851 2.506 2.116 2.921.302.1.538.316.646.594.051.133.105.264.162.394.118.272.104.591-.038.873-.601 1.188-.372 2.619.57 3.561l.705.705c.941.941 2.372 1.171 3.56.569.282-.143.6-.156.875-.037.128.055.257.108.39.16.28.109.497.345.596.648.415 1.264 1.588 2.114 2.92 2.114h.996c1.331 0 2.505-.851 2.921-2.116.099-.302.316-.537.598-.647.131-.051.26-.104.389-.16.273-.117.592-.104.873.038 1.189.602 2.619.371 3.561-.569l.704-.705c.942-.941 1.171-2.372.57-3.561-.044-.09-.054-.186-.073-.28h5.959c1.654 0 3-1.346 3-3 0-1.302-.839-2.402-2-2.816v-2.184h19c2.757 0 5-2.243 5-5v-6h1c1.654 0 3-1.346 3-3v-1h4zm-16 17h-10v-2h10zm0-4h-10v-2h10zm0-4h-10v-2h10zm0-4h-10v-2h10zm0-4h-10v-2h10zm0-4h-10v-2h10zm0-4h-10v-2h10zm-10 26h10v2h-10zm10-30h-10v-2h10zm-20.042 36c-.184-1.118-.971-2.057-2.074-2.419-.303-.1-.539-.316-.646-.594-.051-.133-.105-.264-.162-.394-.118-.272-.104-.591.038-.873.276-.546.369-1.143.306-1.721h4.58v6h-2.042zm3.042-8h-6.615l-.545-.545c-.485-.486-1.101-.777-1.745-.868.158-.344.502-.587.905-.587h8c.551 0 1 .448 1 1s-.449 1-1 1zm-1-10v6h-6v-6zm1-2h-8c-.551 0-1-.448-1-1s.449-1 1-1h8c.551 0 1 .448 1 1s-.449 1-1 1zm-1-10v6h-6v-6zm1-2h-8c-.551 0-1-.448-1-1s.449-1 1-1h8c.551 0 1 .448 1 1s-.449 1-1 1zm-1-10v6h-6v-6zm-7-4h8c.551 0 1 .448 1 1s-.449 1-1 1h-8c-.551 0-1-.448-1-1s.449-1 1-1zm-4 8h3v2.184c-1.161.414-2 1.514-2 2.816s.839 2.402 2 2.816v6.369c-1.161.414-2 1.514-2 2.816s.839 2.402 2 2.816v6.369c-1.149.41-1.978 1.491-1.996 2.775-.204.042-.41.046-.599-.036-.127-.055-.257-.108-.39-.16-.279-.109-.497-.345-.596-.648-.362-1.103-1.302-1.889-2.419-2.073v-23.044c0-1.654 1.346-3 3-3zm-11 19v-4h2v4zm4 5v-14c0-.552.449-1 1-1h1v16h-1c-.551 0-1-.448-1-1zm11.373 18.292c-.042.107-.085.213-.13.317-.356.82-.325 1.758.087 2.572.21.415.13.915-.2 1.244l-.704.705c-.329.327-.829.408-1.245.198-.815-.41-1.752-.443-2.571-.088-.106.047-.214.091-.321.133-.839.326-1.484 1.015-1.771 1.887-.144.443-.555.74-1.02.74h-.996c-.465 0-.875-.298-1.021-.739-.286-.873-.932-1.561-1.769-1.886-.108-.043-.216-.087-.322-.133-.378-.164-.781-.246-1.186-.246-.473 0-.947.111-1.387.333-.416.21-.917.129-1.244-.198l-.703-.705c-.329-.329-.409-.829-.199-1.244.412-.814.443-1.752.087-2.571-.045-.105-.089-.211-.132-.32-.326-.839-1.014-1.484-1.887-1.771-.442-.146-.739-.556-.739-1.022v-.996c0-.466.297-.876.74-1.021.872-.287 1.56-.933 1.887-1.773.042-.107.085-.213.13-.317.356-.82.325-1.758-.087-2.572-.21-.415-.13-.915.2-1.244l.704-.705c.33-.329.83-.408 1.245-.198.816.411 1.753.444 2.571.088.107-.047.215-.091.32-.133.839-.326 1.485-1.014 1.772-1.887.144-.443.555-.74 1.02-.74h.996c.465 0 .875.298 1.021.739.286.873.932 1.561 1.768 1.886.109.043.217.087.323.133.819.354 1.757.324 2.572-.087.416-.21.916-.131 1.244.198l.705.705c.329.329.409.829.199 1.244-.412.814-.443 1.752-.087 2.571.045.105.089.211.132.32.326.839 1.014 1.484 1.887 1.771.441.146.738.556.738 1.022v.996c0 .466-.297.875-.741 1.021-.872.287-1.559.932-1.886 1.773zm7.627-.292h-4.291c.662-.471 1.116-1.187 1.25-2h3.041c.551 0 1 .448 1 1s-.449 1-1 1zm1-10.184c1.161-.414 2-1.514 2-2.816s-.839-2.402-2-2.816v-6.369c1.161-.414 2-1.514 2-2.816s-.839-2.402-2-2.816v-6.369c1.161-.414 2-1.514 2-2.816s-.839-2.402-2-2.816v-2.182h4v34h-4zm22-.816c0 1.654-1.346 3-3 3h-1v-34h1c1.654 0 3 1.346 3 3zm4-9c0 .552-.449 1-1 1h-1v-12h1c.551 0 1 .448 1 1zm4-3h-2v-4h2z" fill="#c1c1c1" data-original="#000000"></path><path d="m14 43c-3.86 0-7 3.141-7 7s3.14 7 7 7 7-3.141 7-7-3.14-7-7-7zm0 12c-2.757 0-5-2.243-5-5s2.243-5 5-5 5 2.243 5 5-2.243 5-5 5z" fill="#c1c1c1" data-original="#000000"></path><path d="m14 47c-1.654 0-3 1.346-3 3s1.346 3 3 3 3-1.346 3-3-1.346-3-3-3zm0 4c-.551 0-1-.448-1-1s.449-1 1-1 1 .448 1 1-.449 1-1 1z" fill="#c1c1c1" data-original="#000000"></path></g></g></svg>